<svg viewBox="0 0 219 165" fill="#C6C6C6" xmlns="http://www.w3.org/2000/svg">
  <path opacity=".5" d="M168.301 44.71C161.34 18.95 137.809 0 109.847 0 76.398 0 49.292 27.103 49.292 60.526c0 .248.02.487.02.726C21.181 64.616 0 79.198 0 96.695c0 10.272 7.32 19.539 19.05 26.128a26.819 26.819 0 0 0-1.126 7.634c0 18.642 19.389 33.761 43.318 33.761 15.276 0 28.7-6.171 36.407-15.477 12.875 9.625 29.834 15.477 48.426 15.477 40.25 0 72.883-27.401 72.883-61.212 0-27.292-21.271-50.403-50.657-58.296Z" fill="#C6C6C6"/>
</svg>
