 <svg
      viewBox="0 0 13 16"
      fill="none"
      xmlns="http://www.w3.org/2000/svg"
    >
      <path
        d="M7.03.287C3.762.287.533 2.315.533 5.597c0 2.088 1.261 3.274 2.025 3.274.315 0 .497-.818.497-1.05 0-.275-.755-.862-.755-2.01 0-2.384 1.949-4.074 4.47-4.074 2.169 0 3.773 1.147 3.773 3.256 0 1.574-.678 4.527-2.875 4.527-.793 0-1.47-.533-1.47-1.298 0-1.121.84-2.206.84-3.363 0-1.963-2.99-1.607-2.99.765 0 .498.067 1.05.306 1.504-.44 1.76-1.337 4.385-1.337 6.2 0 .56.086 1.112.143 1.672.108.113.054.1.22.045 1.604-2.046 1.547-2.447 2.273-5.124.391.694 1.404 1.067 2.206 1.067 3.381 0 4.9-3.069 4.9-5.835 0-2.945-2.732-4.866-5.73-4.866Z"
        fill="#696969"
      />
    </svg>