<svg
      viewBox="0 0 17 14"
      fill="none"
      xmlns="http://www.w3.org/2000/svg"
    >
      <path
        d="M15.04 3.494c.01.14.01.282.01.422 0 4.293-3.317 9.24-9.38 9.24a9.42 9.42 0 0 1-5.063-1.458c.266.03.52.04.796.04 1.542 0 2.96-.512 4.093-1.387-1.45-.03-2.664-.965-3.082-2.252.204.03.408.05.622.05.296 0 .592-.04.868-.11-1.51-.302-2.644-1.61-2.644-3.188v-.04c.44.242.95.392 1.49.412A3.233 3.233 0 0 1 1.28 2.52c0-.603.164-1.156.45-1.639a9.42 9.42 0 0 0 6.798 3.398 3.613 3.613 0 0 1-.082-.744c0-1.79 1.47-3.247 3.297-3.247.95 0 1.807.392 2.409 1.025a6.551 6.551 0 0 0 2.092-.784 3.248 3.248 0 0 1-1.45 1.79 6.688 6.688 0 0 0 1.9-.503 7.028 7.028 0 0 1-1.654 1.68Z"
        fill="#696969"
      />
    </svg>