<svg viewBox="0 0 127 127" fill="none" xmlns="http://www.w3.org/2000/svg">
  <path d="M63.707 126.932c35.07 0 63.5-28.43 63.5-63.5s-28.43-63.5-63.5-63.5-63.5 28.43-63.5 63.5 28.43 63.5 63.5 63.5Z" fill="#FAD34F"/>
  <path d="M80.814 83.16c0 4.546-3.687 0-8.238 0-4.546 0-8.238 4.546-8.238 0a8.24 8.24 0 0 1 8.238-8.239 8.237 8.237 0 0 1 8.238 8.239Zm25.938 0c0 4.546-3.687 0-8.238 0-4.547 0-8.238 4.546-8.238 0a8.24 8.24 0 0 1 8.238-8.239 8.237 8.237 0 0 1 8.238 8.239Zm-8.255 17.454c0 8.365-6.782 15.142-15.143 15.142-8.36 0-15.142-6.782-15.142-15.142 0-8.361 6.781.584 15.142.584s15.143-8.945 15.143-.584Z" fill="#fff"/>
</svg>
